<?xml version="1.0" encoding="UTF-8"?>
<svg id="Layer_1" data-name="Layer 1" xmlns="http://www.w3.org/2000/svg" viewBox="0 0 1366 768">
  <defs>
    <style>
      .cls-1 {
        fill: none;
      }

      .cls-2 {
        fill: #b8e0f4;
      }

      .cls-3 {
        fill: #fff;
        isolation: isolate;
        opacity: .2;
      }
    </style>
  </defs>
  <rect class="cls-2" width="1366" height="768"/>
  <rect id="line1-box1" class="cls-3" x="756.41" y="61.55" width="169.3" height="169.3" rx="8.21" ry="8.21"/>
  <rect id="line1-box2" class="cls-3" x="943.47" y="61.55" width="169.3" height="169.3" rx="8.14" ry="8.14"/>
  <rect id="line2-box2" class="cls-3" x="943.47" y="351.79" width="169.3" height="169.3" rx="8.18" ry="8.18"/>
  <rect id="stack-6" class="cls-1" x="272.72" y="270.83" width="169.3" height="87.07"/>
  <rect id="stack-5" class="cls-1" x="73.49" y="270.83" width="169.3" height="87.07"/>
  <rect id="stack-4" class="cls-1" x="272.72" y="171.08" width="169.3" height="86.31"/>
  <rect id="stack-3" class="cls-1" x="73.49" y="171.08" width="169.3" height="86.31"/>
  <rect id="stack-2" class="cls-1" x="272.72" y="71.78" width="169.3" height="85.86"/>
  <rect id="answer-label-1" class="cls-3" x="756.41" y="236.83" width="169.3" height="87.07" rx="8.01" ry="8.01"/>
  <rect id="answer-label-2" class="cls-3" x="943.47" y="236.83" width="169.3" height="87.07" rx="8.08" ry="8.08"/>
  <rect id="answer-label-3" class="cls-3" x="1130.53" y="236.83" width="169.3" height="87.07" rx="8.35" ry="8.35"/>
  <rect id="answer-label-4" class="cls-3" x="756.41" y="526.39" width="169.3" height="85.42" rx="8.44" ry="8.44"/>
  <rect id="answer-label-5" class="cls-3" x="943.47" y="526.39" width="169.3" height="85.42" rx="8.02" ry="8.02"/>
  <rect id="answer-label-6" class="cls-3" x="1130.53" y="526.39" width="169.3" height="85.42" rx="8.27" ry="8.27"/>
  <rect id="stack-1" class="cls-1" x="73.49" y="71.78" width="169.3" height="85.86"/>
  <rect id="line2-box1" class="cls-3" x="756.41" y="351.79" width="169.3" height="169.3" rx="8.16" ry="8.16"/>
  <rect id="line1-box3" class="cls-3" x="1130.53" y="61.55" width="169.3" height="169.3" rx="8.92" ry="8.92"/>
  <rect id="line2-box3" class="cls-3" x="1130.53" y="351.79" width="169.3" height="169.3" rx="8.2" ry="8.2"/>
</svg>