<?xml version="1.0" encoding="UTF-8"?>
<svg xmlns="http://www.w3.org/2000/svg" viewBox="0 0 1366 768">
  <defs>
    <style>
      .cls-1, .cls-2, .cls-3, .cls-4 {
        fill: none;
        stroke-miterlimit: 10;
        stroke-width: 4px;
      }

      .cls-1, .cls-3 {
        stroke: #b51828;
      }

      .cls-5 {
        fill: #b8e0f4;
      }

      .cls-6 {
        fill: #b78c62;
      }

      .cls-7 {
        fill: #b51828;
      }

      .cls-2, .cls-3 {
        stroke-dasharray: 10.85 10.85;
      }

      .cls-2, .cls-4 {
        stroke: #0972b2;
      }

      .cls-8 {
        fill: #e9cfb0;
      }

      .cls-9 {
        fill: #724a26;
      }

      .cls-10 {
        fill: #0972b2;
      }
    </style>
  </defs>
  <g id="Layer_1" data-name="Layer 1">
    <rect class="cls-5" width="1366" height="768"/>
    <g id="Board">
      <rect class="cls-9" x="46.68" y="73.09" width="599.82" height="582.11"/>
      <rect class="cls-6" x="55.03" y="81.19" width="583.14" height="565.92"/>
      <g>
        <rect class="cls-8" x="65.24" y="90.35" width="75.16" height="133.4"/>
        <rect class="cls-8" x="146.5" y="90.35" width="75.16" height="133.4"/>
        <rect class="cls-8" x="227.76" y="90.35" width="75.16" height="133.4"/>
        <rect class="cls-8" x="309.01" y="90.35" width="75.16" height="133.4"/>
        <rect class="cls-8" x="390.27" y="90.35" width="75.16" height="133.4"/>
        <rect class="cls-8" x="546.02" y="365.74" width="81.93" height="133.4"/>
        <rect class="cls-8" x="546.02" y="504.56" width="81.93" height="133.4"/>
        <rect class="cls-8" x="471.53" y="365.74" width="69.95" height="133.4"/>
        <rect class="cls-8" x="390.27" y="365.74" width="75.16" height="133.4"/>
        <rect class="cls-8" x="306.91" y="365.74" width="77.27" height="133.4"/>
        <rect class="cls-8" x="227.2" y="365.74" width="75.16" height="133.4"/>
        <rect class="cls-8" x="145.8" y="365.74" width="76.86" height="133.4"/>
        <rect class="cls-8" x="65.24" y="365.74" width="75.16" height="133.4"/>
        <rect class="cls-8" x="390.27" y="228.05" width="75.16" height="133.4"/>
        <rect class="cls-8" x="306.91" y="228.05" width="77.27" height="133.4"/>
        <rect class="cls-8" x="227.76" y="228.05" width="75.16" height="133.4"/>
        <rect class="cls-8" x="145.8" y="228.05" width="75.86" height="133.4"/>
        <rect class="cls-8" x="65.24" y="228.05" width="75.16" height="133.4"/>
        <rect class="cls-8" x="145.8" y="504.56" width="75.86" height="133.4"/>
        <rect class="cls-8" x="65.24" y="504.56" width="75.16" height="133.4"/>
        <rect class="cls-8" x="471.53" y="504.56" width="69.95" height="133.4"/>
        <rect class="cls-8" x="390.27" y="504.56" width="75.16" height="133.4"/>
        <rect class="cls-8" x="471.53" y="91.69" width="75.16" height="187.18"/>
        <rect class="cls-8" x="552.79" y="90.35" width="75.16" height="188.52"/>
        <rect class="cls-8" x="512.16" y="244.54" width="75.16" height="156.42" transform="translate(872.49 -226.99) rotate(90)"/>
        <rect class="cls-8" x="238.99" y="492.77" width="133.4" height="156.98" transform="translate(876.94 265.56) rotate(90)"/>
      </g>
    </g>
    <rect id="pic1-holder" class="cls-10" x="704.62" y="71.96" width="169.3" height="169.3"/>
    <rect id="pic2-holder" class="cls-10" x="704.62" y="276.79" width="169.3" height="169.3"/>
    <rect id="pic3-holder" class="cls-10" x="704.62" y="477.68" width="169.3" height="169.3"/>
    <g id="con-firs-1-holder">
      <g>
        <line class="cls-1" x1="892.99" y1="238.98" x2="898.99" y2="238.98"/>
        <line class="cls-3" x1="909.84" y1="238.98" x2="991.24" y2="238.98"/>
        <line class="cls-1" x1="996.67" y1="238.98" x2="1002.67" y2="238.98"/>
      </g>
    </g>
    <g id="vow-1-holder">
      <g>
        <line class="cls-4" x1="1034.99" y1="238.98" x2="1040.99" y2="238.98"/>
        <line class="cls-2" x1="1051.85" y1="238.98" x2="1133.24" y2="238.98"/>
        <line class="cls-4" x1="1138.67" y1="238.98" x2="1144.67" y2="238.98"/>
      </g>
    </g>
    <g id="con-last-1-holder">
      <g>
        <line class="cls-1" x1="1178" y1="238.98" x2="1184" y2="238.98"/>
        <line class="cls-3" x1="1194.85" y1="238.98" x2="1276.25" y2="238.98"/>
        <line class="cls-1" x1="1281.67" y1="238.98" x2="1287.67" y2="238.98"/>
      </g>
    </g>
    <g id="con-firs-2-holder">
      <g>
        <line class="cls-1" x1="892.99" y1="444.06" x2="898.99" y2="444.06"/>
        <line class="cls-3" x1="909.84" y1="444.06" x2="991.24" y2="444.06"/>
        <line class="cls-1" x1="996.67" y1="444.06" x2="1002.67" y2="444.06"/>
      </g>
    </g>
    <g id="vow-2-holder">
      <g>
        <line class="cls-4" x1="1034.99" y1="444.06" x2="1040.99" y2="444.06"/>
        <line class="cls-2" x1="1051.85" y1="444.06" x2="1133.24" y2="444.06"/>
        <line class="cls-4" x1="1138.67" y1="444.06" x2="1144.67" y2="444.06"/>
      </g>
    </g>
    <g id="con-last-2-holder">
      <g>
        <line class="cls-1" x1="1178" y1="444.06" x2="1184" y2="444.06"/>
        <line class="cls-3" x1="1194.85" y1="444.06" x2="1276.25" y2="444.06"/>
        <line class="cls-1" x1="1281.67" y1="444.06" x2="1287.67" y2="444.06"/>
      </g>
    </g>
    <g id="con-firs-3-holder">
      <g>
        <line class="cls-1" x1="892.99" y1="646.98" x2="898.99" y2="646.98"/>
        <line class="cls-3" x1="909.84" y1="646.98" x2="991.24" y2="646.98"/>
        <line class="cls-1" x1="996.67" y1="646.98" x2="1002.67" y2="646.98"/>
      </g>
    </g>
    <g id="vow-3-holder">
      <g>
        <line class="cls-4" x1="1034.99" y1="646.98" x2="1040.99" y2="646.98"/>
        <line class="cls-2" x1="1051.85" y1="646.98" x2="1133.24" y2="646.98"/>
        <line class="cls-4" x1="1138.67" y1="646.98" x2="1144.67" y2="646.98"/>
      </g>
    </g>
    <g id="con-last-3-holder">
      <g>
        <line class="cls-1" x1="1178" y1="646.98" x2="1184" y2="646.98"/>
        <line class="cls-3" x1="1194.85" y1="646.98" x2="1276.25" y2="646.98"/>
        <line class="cls-1" x1="1281.67" y1="646.98" x2="1287.67" y2="646.98"/>
      </g>
    </g>
  </g>
  <g id="letters">
    <g id="a">
      <path class="cls-10" d="M119.35,135.7h13.09v56.4h-13.09v-5.91c-5.37,5.02-11.14,7.53-17.31,7.53-7.8,0-14.24-2.82-19.34-8.45-5.06-5.75-7.58-12.93-7.58-21.54s2.53-15.5,7.58-21.13c5.06-5.64,11.39-8.45,18.99-8.45,6.56,0,12.45,2.7,17.66,8.11v-6.54ZM88.43,163.73c0,5.4,1.45,9.81,4.34,13.2,2.97,3.44,6.72,5.15,11.23,5.15,4.83,0,8.72-1.66,11.7-4.98,2.97-3.44,4.46-7.8,4.46-13.09s-1.49-9.65-4.46-13.09c-2.97-3.36-6.83-5.04-11.58-5.04-4.48,0-8.22,1.7-11.23,5.1-2.97,3.44-4.46,7.68-4.46,12.74Z"/>
    </g>
    <g id="b">
      <path class="cls-7" d="M168.4,110.25v47.94c5.21-5.4,11.12-8.11,17.72-8.11,7.6,0,13.93,2.84,18.99,8.51,5.06,5.64,7.58,12.66,7.58,21.08s-2.55,15.86-7.64,21.54c-5.06,5.64-11.45,8.45-19.17,8.45-6.52,0-12.35-2.51-17.49-7.53v5.91h-13.03v-97.79h13.03ZM199.38,180.25c0-5.4-1.47-9.8-4.4-13.2-2.97-3.47-6.7-5.21-11.18-5.21-4.79,0-8.69,1.68-11.7,5.04-2.97,3.32-4.46,7.64-4.46,12.97s1.47,9.86,4.4,13.14c2.93,3.36,6.79,5.04,11.58,5.04,4.52,0,8.26-1.68,11.23-5.04,3.01-3.4,4.52-7.64,4.52-12.74Z"/>
    </g>
    <g id="c">
      <path class="cls-7" d="M285.06,144.97v17.31c-2.97-3.63-5.64-6.12-7.99-7.47-2.32-1.39-5.04-2.08-8.16-2.08-4.9,0-8.97,1.72-12.22,5.15-3.24,3.44-4.86,7.74-4.86,12.91s1.56,9.63,4.69,13.03c3.16,3.4,7.2,5.09,12.1,5.09,3.13,0,5.89-.68,8.28-2.03,2.32-1.31,5.04-3.86,8.16-7.64v17.2c-5.29,2.74-10.58,4.11-15.86,4.11-8.72,0-16.02-2.82-21.89-8.45-5.87-5.67-8.8-12.72-8.8-21.13s2.97-15.52,8.92-21.31c5.94-5.79,13.24-8.69,21.89-8.69,5.56,0,10.81,1.33,15.75,3.99Z"/>
    </g>
    <g id="d">
      <path class="cls-7" d="M358.34,110.25h13.09v97.79h-13.09v-5.91c-5.13,5.02-10.94,7.53-17.43,7.53-7.72,0-14.13-2.82-19.22-8.45-5.06-5.75-7.58-12.93-7.58-21.54s2.53-15.44,7.58-21.08c5.02-5.67,11.33-8.51,18.93-8.51,6.6,0,12.51,2.7,17.72,8.11v-47.94ZM327.42,179.67c0,5.4,1.45,9.81,4.34,13.2,2.97,3.44,6.72,5.15,11.23,5.15,4.83,0,8.72-1.66,11.7-4.98,2.97-3.44,4.46-7.8,4.46-13.09s-1.49-9.65-4.46-13.09c-2.97-3.36-6.83-5.04-11.58-5.04-4.48,0-8.22,1.7-11.23,5.1-2.97,3.44-4.46,7.68-4.46,12.74Z"/>
    </g>
    <g id="e">
      <path class="cls-10" d="M452.89,166.97h-40.41c.35,4.63,1.85,8.32,4.52,11.06,2.66,2.7,6.08,4.05,10.25,4.05,3.24,0,5.93-.77,8.05-2.32,2.08-1.54,4.46-4.4,7.12-8.57l11,6.14c-1.7,2.89-3.49,5.38-5.38,7.44-1.89,2.07-3.92,3.76-6.08,5.09-2.16,1.33-4.5,2.31-7.01,2.92-2.51.62-5.23.93-8.16.93-8.42,0-15.17-2.7-20.27-8.11-5.1-5.44-7.64-12.66-7.64-21.65s2.47-16.13,7.41-21.65c4.98-5.44,11.58-8.16,19.8-8.16s14.86,2.64,19.69,7.93c4.79,5.25,7.18,12.53,7.18,21.83l-.06,3.07ZM439.52,156.32c-1.81-6.95-6.2-10.42-13.14-10.42-1.58,0-3.07.24-4.46.72-1.39.48-2.65,1.18-3.79,2.08-1.14.91-2.11,2-2.92,3.27-.81,1.27-1.43,2.72-1.85,4.34h26.17Z"/>
    </g>
    <g id="f">
      <path class="cls-7" d="M508.43,189.8v44.24h-13.09v-44.24h-4.63v-12.16h4.63v-21.77c0-7.1,1.23-12.12,3.71-15.05,3.4-4.09,8.34-6.14,14.82-6.14,2.32,0,5.23.68,8.74,2.03v13.32l-1.33-.69c-2.82-1.43-5.13-2.14-6.95-2.14-2.32,0-3.88.83-4.69,2.49-.81,1.62-1.22,4.75-1.22,9.38v18.59h14.19v12.16h-14.19Z"/>
    </g>
    <g id="g">
      <path class="cls-7" d="M615.58,197.6c0,2.66-.09,5.01-.26,7.03-.17,2.03-.42,3.81-.72,5.36-.93,4.25-2.74,7.89-5.44,10.94-5.09,5.87-12.1,8.8-21.02,8.8-7.53,0-13.72-2.03-18.59-6.08-5.02-4.17-7.91-9.94-8.69-17.31h13.09c.5,2.78,1.33,4.92,2.49,6.43,2.7,3.51,6.64,5.27,11.81,5.27,9.53,0,14.3-5.85,14.3-17.54v-7.87c-5.17,5.29-11.14,7.93-17.89,7.93-7.68,0-13.97-2.78-18.88-8.34-4.94-5.64-7.41-12.68-7.41-21.13s2.3-15.21,6.89-20.96c4.94-6.1,11.46-9.15,19.57-9.15,7.1,0,13.01,2.64,17.72,7.93v-6.37h13.03v55.06ZM603.08,170.85c0-5.48-1.47-9.86-4.4-13.14-2.97-3.36-6.77-5.04-11.41-5.04-4.94,0-8.84,1.83-11.7,5.5-2.59,3.28-3.88,7.53-3.88,12.74s1.29,9.34,3.88,12.62c2.82,3.59,6.72,5.38,11.7,5.38s8.92-1.81,11.81-5.44c2.66-3.28,3.99-7.49,3.99-12.62Z"/>
    </g>
    <g id="h">
      <path class="cls-7" d="M75.36,243.3h15.45v49.78c5.49-4.5,11.56-6.75,18.2-6.75,7.55,0,13.6,2.23,18.13,6.69,3.85,3.88,5.77,10.07,5.77,18.57v37.34h-15.45v-36.02c0-4.88-.95-8.41-2.85-10.6-1.9-2.19-4.96-3.28-9.17-3.28-5.4,0-9.2,1.52-11.4,4.57-2.15,3.09-3.23,8.38-3.23,15.88v29.46h-15.45v-105.63Z"/>
    </g>
    <g id="i">
      <path class="cls-10" d="M175.5,266.25c0-2.28.83-4.25,2.49-5.91s3.65-2.49,5.96-2.49,4.36.83,6.02,2.49c1.66,1.62,2.49,3.61,2.49,5.96s-.83,4.36-2.49,6.02c-1.62,1.66-3.61,2.49-5.96,2.49s-4.36-.83-6.02-2.49c-1.66-1.66-2.49-3.69-2.49-6.08ZM190.5,289.69v56.4h-13.03v-56.4h13.03Z"/>
    </g>
    <g id="j">
      <path class="cls-7" d="M289.69,238.63v74.96c0,8.96-.63,15.63-1.88,20.04-1.25,5-3.38,9.23-6.38,12.68-19.11,23.58-51.86,4.27-52.95-18.39l8.82.15c15.86,33.27,41.8,19.39,41.62-14.48v-74.96h10.77Z"/>
    </g>
    <g id="k">
      <path class="cls-7" d="M334.6,240.1v75.69l19.14-19.02h18.24l-25.54,24.7,27.41,34.12h-17.63l-19.44-24.82-2.17,2.17v22.64h-13.59v-115.48h13.59Z"/>
    </g>
    <g id="l">
      <path class="cls-7" d="M432.93,242.33v113.47h-13.03v-113.47h13.03Z"/>
    </g>
    <g id="m">
      <path class="cls-7" d="M508.42,299.4h13.03v5.21c2.51-2.62,4.65-4.4,6.43-5.33,1.89-.96,4.26-1.45,7.12-1.45,6.37,0,11.41,2.78,15.11,8.34,4.09-5.56,9.63-8.34,16.62-8.34,12.7,0,19.05,7.7,19.05,23.1v34.86h-13.09v-31.32c0-5.4-.66-9.23-1.97-11.46-1.35-2.28-3.57-3.42-6.66-3.42-3.59,0-6.21,1.35-7.85,4.05-1.64,2.7-2.46,7.05-2.46,13.03v29.12h-13.09v-31.15c0-10.04-2.9-15.05-8.69-15.05-3.67,0-6.34,1.37-8.02,4.11-1.68,2.74-2.52,7.06-2.52,12.97v29.12h-13.03v-56.4Z"/>
    </g>
    <g id="n">
      <path class="cls-7" d="M79.02,406.59h14.54v5.42c5.06-4.69,10.77-7.04,17.12-7.04,7.29,0,12.98,2.15,17.05,6.44,3.52,3.65,5.28,9.61,5.28,17.87v35.93h-14.54v-32.74c0-5.78-.86-9.77-2.57-11.98-1.67-2.25-4.72-3.37-9.14-3.37-4.81,0-8.22,1.48-10.23,4.45-1.97,2.93-2.96,8.04-2.96,15.35v28.29h-14.54v-58.62Z"/>
    </g>
    <g id="o">
      <path class="cls-10" d="M154.14,435.64c0-8.14,2.91-15.07,8.74-20.79,5.83-5.71,12.93-8.57,21.31-8.57s15.56,2.88,21.42,8.63c5.79,5.75,8.69,12.82,8.69,21.19s-2.92,15.54-8.74,21.25c-5.87,5.67-13.07,8.51-21.6,8.51s-15.54-2.89-21.25-8.69c-5.71-5.71-8.57-12.89-8.57-21.54ZM167.46,435.87c0,5.64,1.51,10.09,4.52,13.38,3.09,3.32,7.16,4.98,12.22,4.98s9.17-1.64,12.22-4.92c3.05-3.28,4.57-7.66,4.57-13.14s-1.52-9.86-4.57-13.14c-3.09-3.32-7.16-4.98-12.22-4.98s-9.01,1.66-12.1,4.98c-3.09,3.32-4.63,7.61-4.63,12.85Z"/>
    </g>
    <g id="p">
      <path class="cls-7" d="M249.97,481.03h-13.03v-87.08h13.03v6.14c5.13-5.13,10.96-7.7,17.49-7.7,7.76,0,14.15,2.86,19.17,8.57,5.09,5.67,7.64,12.84,7.64,21.48s-2.53,15.5-7.58,21.13c-5.02,5.6-11.35,8.4-18.99,8.4-6.6,0-12.51-2.64-17.72-7.93v37ZM280.95,422.49c0-5.4-1.47-9.8-4.4-13.2-2.97-3.44-6.72-5.15-11.23-5.15-4.79,0-8.67,1.66-11.64,4.98-2.97,3.32-4.46,7.68-4.46,13.09s1.49,9.65,4.46,13.09c2.93,3.36,6.79,5.04,11.58,5.04,4.52,0,8.24-1.7,11.18-5.09,3.01-3.4,4.52-7.64,4.52-12.74Z"/>
    </g>
    <g id="q">
      <path class="cls-7" d="M356.02,479.5v-37c-5.17,5.29-11.08,7.93-17.72,7.93-7.61,0-13.92-2.8-18.93-8.4-5.06-5.64-7.59-12.68-7.59-21.13s2.53-15.73,7.59-21.48c5.09-5.71,11.48-8.57,19.16-8.57,6.52,0,12.35,2.57,17.49,7.7v-6.14h13.09v87.08h-13.09ZM325.1,420.33c0,5.44,1.47,9.86,4.4,13.26,2.93,3.47,6.66,5.21,11.18,5.21,4.79,0,8.67-1.66,11.64-4.98,3.01-3.36,4.52-7.72,4.52-13.09s-1.49-9.65-4.46-13.09c-2.97-3.36-6.83-5.04-11.58-5.04-4.48,0-8.22,1.7-11.23,5.1-2.97,3.44-4.46,7.64-4.46,12.62Z"/>
    </g>
    <g id="r">
      <path class="cls-7" d="M407.64,420h13.03v5.04c2.39-2.51,4.52-4.23,6.37-5.15,1.89-.96,4.13-1.45,6.72-1.45,3.44,0,7.03,1.12,10.77,3.36l-5.96,11.93c-2.47-1.77-4.88-2.66-7.24-2.66-7.1,0-10.65,5.37-10.65,16.1v29.24h-13.03v-56.4Z"/>
    </g>
    <g id="t">
      <path class="cls-7" d="M590.19,430.97v49.69h-13.03v-49.69h-11.54v-9.8h11.54v-32.05h13.03v32.05h10.13v9.8h-10.13Z"/>
    </g>
    <g id="z">
      <path class="cls-7" d="M579.49,590.5h33.53v12.28h-59.35l36.54-44.24h-28.78v-12.16h54.54l-36.48,44.12Z"/>
    </g>
    <g id="y">
      <path class="cls-7" d="M500.84,576.89l-25.36-45.92h15.11l17.25,32.43,16.1-32.43h14.71l-44.93,87.08h-14.88l22-41.17Z"/>
    </g>
    <g id="x">
      <path class="cls-7" d="M418.5,572.26l-20.26-25.88h15.52l12.56,16.44,12.8-16.44h15.98l-20.84,25.88,24.14,30.51h-15.52l-16.56-21.08-16.96,21.08h-15.92l25.07-30.51Z"/>
    </g>
    <g id="w">
      <path class="cls-7" d="M274.38,548.93l14.76,32.19,15.92-37.35,16.04,37.35,14.59-32.19h14.59l-29.53,60.62-15.69-36.3-15.86,36.3-29.47-60.62h14.65Z"/>
    </g>
    <g id="v">
      <path class="cls-7" d="M169.37,548.93l14.59,31.67,14.53-31.67h14.65l-29.3,60.27-29.07-60.27h14.59Z"/>
    </g>
    <g id="u">
      <path class="cls-10" d="M91.28,548.93v32.37c0,9.34,3.69,14.01,11.06,14.01s11.06-4.67,11.06-14.01v-32.37h13.03v32.66c0,4.52-.56,8.42-1.68,11.7-1.08,2.93-2.95,5.58-5.62,7.93-4.4,3.82-10,5.73-16.79,5.73s-12.33-1.91-16.73-5.73c-2.7-2.35-4.61-5-5.73-7.93-1.08-2.62-1.62-6.52-1.62-11.7v-32.66h13.03Z"/>
    </g>
    <g id="s">
      <path class="cls-7" d="M518.23,432l-10.77,5.73c-1.7-3.47-3.8-5.21-6.31-5.21-1.2,0-2.22.4-3.07,1.19-.85.79-1.27,1.81-1.27,3.04,0,2.16,2.51,4.3,7.53,6.43,6.91,2.97,11.56,5.71,13.95,8.22,2.39,2.51,3.59,5.89,3.59,10.13,0,5.44-2.01,10-6.02,13.66-3.9,3.47-8.61,5.21-14.13,5.21-9.46,0-16.15-4.61-20.09-13.84l11.12-5.15c1.54,2.7,2.72,4.42,3.53,5.15,1.58,1.47,3.47,2.2,5.67,2.2,4.4,0,6.6-2.01,6.6-6.02,0-2.32-1.7-4.48-5.09-6.49-1.31-.66-2.63-1.29-3.94-1.91-1.31-.62-2.64-1.25-4-1.91-3.78-1.85-6.45-3.71-7.99-5.56-1.97-2.35-2.95-5.38-2.95-9.09,0-4.9,1.68-8.95,5.04-12.16,3.44-3.2,7.6-4.81,12.51-4.81,7.22,0,12.58,3.73,16.1,11.17Z"/>
    </g>
  </g>
</svg>