<?xml version="1.0" encoding="UTF-8"?>
<svg id="Layer_1" data-name="Layer 1" xmlns="http://www.w3.org/2000/svg" viewBox="0 0 1366 768">
  <defs>
    <style>
      .cls-1, .cls-2, .cls-3, .cls-4, .cls-5 {
        fill: none;
      }

      .cls-2, .cls-3, .cls-4, .cls-5 {
        stroke-miterlimit: 10;
        stroke-width: 4px;
      }

      .cls-2, .cls-4 {
        stroke: #b51828;
      }

      .cls-6 {
        fill: #b8e0f4;
      }

      .cls-7 {
        fill: #b78c62;
      }

      .cls-3, .cls-4 {
        stroke-dasharray: 10.85 10.85;
      }

      .cls-3, .cls-5 {
        stroke: #0972b2;
      }

      .cls-8 {
        fill: #e9cfb0;
      }

      .cls-9 {
        fill: #724a26;
      }

      .cls-10 {
        fill: #0972b2;
      }
    </style>
  </defs>
  <rect class="cls-6" width="1366" height="768"/>
  <g id="Board">
    <rect class="cls-9" x="46.68" y="73.09" width="599.82" height="582.11"/>
    <rect class="cls-7" x="55.03" y="81.19" width="583.14" height="565.92"/>
    <g>
      <rect class="cls-8" x="65.24" y="90.35" width="75.16" height="133.4"/>
      <rect class="cls-8" x="146.5" y="90.35" width="75.16" height="133.4"/>
      <rect class="cls-8" x="227.76" y="90.35" width="75.16" height="133.4"/>
      <rect class="cls-8" x="309.01" y="90.35" width="75.16" height="133.4"/>
      <rect class="cls-8" x="390.27" y="90.35" width="75.16" height="133.4"/>
      <rect class="cls-8" x="546.02" y="365.74" width="81.93" height="133.4"/>
      <rect class="cls-8" x="546.02" y="504.56" width="81.93" height="133.4"/>
      <rect class="cls-8" x="471.53" y="365.74" width="69.95" height="133.4"/>
      <rect class="cls-8" x="390.27" y="365.74" width="75.16" height="133.4"/>
      <rect class="cls-8" x="306.91" y="365.74" width="77.27" height="133.4"/>
      <rect class="cls-8" x="227.2" y="365.74" width="75.16" height="133.4"/>
      <rect class="cls-8" x="145.8" y="365.74" width="76.86" height="133.4"/>
      <rect class="cls-8" x="65.24" y="365.74" width="75.16" height="133.4"/>
      <rect class="cls-8" x="390.27" y="228.05" width="75.16" height="133.4"/>
      <rect class="cls-8" x="306.91" y="228.05" width="77.27" height="133.4"/>
      <rect class="cls-8" x="227.76" y="228.05" width="75.16" height="133.4"/>
      <rect class="cls-8" x="145.8" y="228.05" width="75.86" height="133.4"/>
      <rect class="cls-8" x="65.24" y="228.05" width="75.16" height="133.4"/>
      <rect class="cls-8" x="145.8" y="504.56" width="75.86" height="133.4"/>
      <rect class="cls-8" x="65.24" y="504.56" width="75.16" height="133.4"/>
      <rect class="cls-8" x="471.53" y="504.56" width="69.95" height="133.4"/>
      <rect class="cls-8" x="390.27" y="504.56" width="75.16" height="133.4"/>
      <rect class="cls-8" x="471.53" y="91.69" width="75.16" height="187.18"/>
      <rect class="cls-8" x="552.79" y="90.35" width="75.16" height="188.52"/>
      <rect class="cls-8" x="512.16" y="244.54" width="75.16" height="156.42" transform="translate(872.49 -226.99) rotate(90)"/>
      <rect class="cls-8" x="238.99" y="492.77" width="133.4" height="156.98" transform="translate(876.94 265.56) rotate(90)"/>
    </g>
  </g>
  <rect id="pic1-holder" class="cls-10" x="704.62" y="71.96" width="169.3" height="169.3"/>
  <rect id="line-1-letter1" class="cls-1" x="892.99" y="71.96" width="109.68" height="163.8"/>
  <rect id="line-1-letter2" class="cls-1" x="1034.99" y="71.96" width="109.68" height="163.8"/>
  <rect id="line-1-letter3" class="cls-1" x="1178" y="71.96" width="109.68" height="163.8"/>
  <rect id="line-2-letter1" class="cls-1" x="892.99" y="277.57" width="109.68" height="163.8"/>
  <rect id="line-2-letter2" class="cls-1" x="1034.99" y="277.57" width="109.68" height="163.8"/>
  <rect id="line-2-letter3" class="cls-1" x="1178" y="277.57" width="109.68" height="163.8"/>
  <rect id="line-3-letter1" class="cls-1" x="892.99" y="483.31" width="109.68" height="163.8"/>
  <rect id="line-3-letter2" class="cls-1" x="1034.99" y="483.31" width="109.68" height="163.8"/>
  <rect id="line-3-letter3" class="cls-1" x="1178" y="483.31" width="109.68" height="163.8"/>
  <rect id="pic2-holder" class="cls-10" x="704.62" y="276.79" width="169.3" height="169.3"/>
  <rect id="pic3-holder" class="cls-10" x="704.62" y="477.68" width="169.3" height="169.3"/>
  <g id="con-firs-1-holder">
    <g>
      <line class="cls-2" x1="892.99" y1="238.98" x2="898.99" y2="238.98"/>
      <line class="cls-4" x1="909.84" y1="238.98" x2="991.24" y2="238.98"/>
      <line class="cls-2" x1="996.67" y1="238.98" x2="1002.67" y2="238.98"/>
    </g>
  </g>
  <g id="vow-1-holder">
    <g>
      <line class="cls-5" x1="1034.99" y1="238.98" x2="1040.99" y2="238.98"/>
      <line class="cls-3" x1="1051.85" y1="238.98" x2="1133.24" y2="238.98"/>
      <line class="cls-5" x1="1138.67" y1="238.98" x2="1144.67" y2="238.98"/>
    </g>
  </g>
  <g id="con-last-1-holder">
    <g>
      <line class="cls-2" x1="1178" y1="238.98" x2="1184" y2="238.98"/>
      <line class="cls-4" x1="1194.85" y1="238.98" x2="1276.25" y2="238.98"/>
      <line class="cls-2" x1="1281.67" y1="238.98" x2="1287.67" y2="238.98"/>
    </g>
  </g>
  <g id="con-firs-2-holder">
    <g>
      <line class="cls-2" x1="892.99" y1="444.06" x2="898.99" y2="444.06"/>
      <line class="cls-4" x1="909.84" y1="444.06" x2="991.24" y2="444.06"/>
      <line class="cls-2" x1="996.67" y1="444.06" x2="1002.67" y2="444.06"/>
    </g>
  </g>
  <g id="vow-2-holder">
    <g>
      <line class="cls-5" x1="1034.99" y1="444.06" x2="1040.99" y2="444.06"/>
      <line class="cls-3" x1="1051.85" y1="444.06" x2="1133.24" y2="444.06"/>
      <line class="cls-5" x1="1138.67" y1="444.06" x2="1144.67" y2="444.06"/>
    </g>
  </g>
  <g id="con-last-2-holder">
    <g>
      <line class="cls-2" x1="1178" y1="444.06" x2="1184" y2="444.06"/>
      <line class="cls-4" x1="1194.85" y1="444.06" x2="1276.25" y2="444.06"/>
      <line class="cls-2" x1="1281.67" y1="444.06" x2="1287.67" y2="444.06"/>
    </g>
  </g>
  <g id="con-firs-3-holder">
    <g>
      <line class="cls-2" x1="892.99" y1="646.98" x2="898.99" y2="646.98"/>
      <line class="cls-4" x1="909.84" y1="646.98" x2="991.24" y2="646.98"/>
      <line class="cls-2" x1="996.67" y1="646.98" x2="1002.67" y2="646.98"/>
    </g>
  </g>
  <g id="vow-3-holder">
    <g>
      <line class="cls-5" x1="1034.99" y1="646.98" x2="1040.99" y2="646.98"/>
      <line class="cls-3" x1="1051.85" y1="646.98" x2="1133.24" y2="646.98"/>
      <line class="cls-5" x1="1138.67" y1="646.98" x2="1144.67" y2="646.98"/>
    </g>
  </g>
  <g id="con-last-3-holder">
    <g>
      <line class="cls-2" x1="1178" y1="646.98" x2="1184" y2="646.98"/>
      <line class="cls-4" x1="1194.85" y1="646.98" x2="1276.25" y2="646.98"/>
      <line class="cls-2" x1="1281.67" y1="646.98" x2="1287.67" y2="646.98"/>
    </g>
  </g>
</svg>