<?xml version="1.0" encoding="UTF-8"?>
<svg id="Layer_1" data-name="Layer 1" xmlns="http://www.w3.org/2000/svg" viewBox="0 0 1366 768">
  <defs>
    <style>
      .cls-1, .cls-2 {
        fill: none;
      }

      .cls-3 {
        fill: #b8e0f4;
      }

      .cls-2, .cls-4 {
        isolation: isolate;
        opacity: .2;
      }

      .cls-4 {
        fill: #fff;
      }
    </style>
  </defs>
  <rect class="cls-3" width="1366" height="768"/>
  <rect id="line1-box1" class="cls-4" x="513.31" y="21.06" width="165.92" height="210.37" rx="8.21" ry="8.21"/>
  <rect id="line1-box2" class="cls-4" x="513.31" y="260.5" width="165.92" height="210.37" rx="8.14" ry="8.14"/>
  <rect id="stack-3" class="cls-1" x="116.86" y="73.96" width="165.92" height="164.7" rx="8.38" ry="8.38"/>
  <rect id="stack-2" class="cls-1" x="106.25" y="65.58" width="165.92" height="164.7" rx="8.61" ry="8.61"/>
  <rect id="stack-1" class="cls-1" x="94.87" y="56.35" width="165.92" height="164.7" rx="8.17" ry="8.17"/>
  <rect id="line1-box3" class="cls-4" x="513.31" y="513.27" width="165.92" height="210.37" rx="8.92" ry="8.92"/>
  <rect id="answer-1" class="cls-4" x="690.08" y="21.06" width="164.7" height="164.7" rx="8.21" ry="8.21"/>
  <rect id="label-answer-1" class="cls-4" x="690.08" y="192.45" width="164.7" height="64.05" rx="8.21" ry="8.21"/>
  <rect id="answer-1-2" data-name="answer-1" class="cls-2" x="83.49" y="277.51" width="164.7" height="64.05" rx="8.21" ry="8.21"/>
  <rect id="label-answer-2" class="cls-4" x="690.08" y="439.76" width="164.7" height="64.05" rx="8.21" ry="8.21"/>
  <rect id="label-stack1" class="cls-2" x="107.47" y="301.63" width="164.7" height="64.05" rx="8.21" ry="8.21"/>
  <rect id="label-answer1-" class="cls-2" x="95.48" y="290.41" width="164.7" height="64.05" rx="8.21" ry="8.21"/>
  <rect id="label-answer-3" class="cls-4" x="690.08" y="685.61" width="164.7" height="64.05" rx="8.21" ry="8.21"/>
  <rect id="answer-2" class="cls-4" x="690.08" y="266.5" width="164.7" height="164.7" rx="8.21" ry="8.21"/>
  <rect id="answer-3" class="cls-4" x="690.08" y="512.36" width="164.7" height="164.7" rx="8.21" ry="8.21"/>
</svg>