<?xml version="1.0" encoding="UTF-8"?>
<svg id="Layer_1" xmlns="http://www.w3.org/2000/svg" version="1.1" viewBox="0 0 1000 1000">
  <!-- Generator: Adobe Illustrator 29.8.4, SVG Export Plug-In . SVG Version: 2.1.1 Build 6)  -->
  <path d="M681.5,102.2h282.3v795.6h-282.3v-88.4c-60,75.5-141.1,113.2-243.5,113.2s-111.2-10.6-159.7-31.8c-48.6-21.2-91-50.9-127.2-89.2-36.2-38.2-64.4-83.2-84.5-134.9-20.2-51.7-30.2-108-30.2-169.1s9.8-110.9,29.5-162.1c19.6-51.2,47-95.9,82.2-134.2,35.1-38.2,77-68.5,125.6-90.7,48.6-22.2,102.4-33.3,161.3-33.3,99.3,0,181.5,34.7,246.6,103.9v-79.1ZM327.8,497.7c0,25.9,4.7,49.9,14,72.1,9.3,22.2,22,41.6,38,58.2,16,16.6,35.1,29.5,57.4,38.8,22.2,9.3,46.3,14,72.1,14s48.3-4.7,70.6-14c22.2-9.3,41.3-22.2,57.4-38.8,16-16.5,28.9-35.7,38.8-57.4,9.8-21.7,14.7-45,14.7-69.8s-4.9-48.3-14.7-70.6c-9.8-22.2-22.8-41.6-38.8-58.2-16-16.5-35.2-29.5-57.4-38.8-22.2-9.3-45.8-14-70.6-14s-49.9,4.7-72.1,14c-22.2,9.3-41.4,22.2-57.4,38.8-16,16.6-28.7,35.4-38,56.6-9.3,21.2-14,44.2-14,69Z"/>
</svg>