<?xml version="1.0" encoding="UTF-8"?>
<svg id="Layer_1" xmlns="http://www.w3.org/2000/svg" version="1.1" viewBox="0 0 1366 768">
  <!-- Generator: Adobe Illustrator 30.2.1, SVG Export Plug-In . SVG Version: 2.1.1 Build 1)  -->
  <defs>
    <style>
      .st0 {
        fill: none;
      }

      .st1 {
        fill: #b8e0f4;
      }

      .st2 {
        fill: #b78c62;
      }

      .st3 {
        fill: #e9cfb0;
      }

      .st4 {
        fill: #724a26;
      }
    </style>
  </defs>
  <rect class="st1" x="0" width="1366" height="768"/>
  <g id="Board">
    <rect class="st4" x="37.3" y="84.5" width="549.8" height="533.6"/>
    <rect class="st2" x="45" y="92" width="534.5" height="518.8"/>
    <g>
      <rect class="st3" x="54.3" y="100.4" width="68.9" height="122.3"/>
      <rect class="st3" x="128.8" y="100.4" width="68.9" height="122.3"/>
      <rect class="st3" x="203.3" y="100.4" width="68.9" height="122.3"/>
      <rect class="st3" x="277.8" y="100.4" width="68.9" height="122.3"/>
      <rect class="st3" x="352.3" y="100.4" width="68.9" height="122.3"/>
      <rect class="st3" x="495.1" y="352.8" width="75.1" height="122.3"/>
      <rect class="st3" x="495.1" y="480.1" width="75.1" height="122.3"/>
      <rect class="st3" x="426.8" y="352.8" width="64.1" height="122.3"/>
      <rect class="st3" x="352.3" y="352.8" width="68.9" height="122.3"/>
      <rect class="st3" x="275.9" y="352.8" width="70.8" height="122.3"/>
      <rect class="st3" x="202.8" y="352.8" width="68.9" height="122.3"/>
      <rect class="st3" x="128.2" y="352.8" width="70.5" height="122.3"/>
      <rect class="st3" x="54.3" y="352.8" width="68.9" height="122.3"/>
      <rect class="st3" x="352.3" y="226.6" width="68.9" height="122.3"/>
      <rect class="st3" x="275.9" y="226.6" width="70.8" height="122.3"/>
      <rect class="st3" x="203.3" y="226.6" width="68.9" height="122.3"/>
      <rect class="st3" x="128.2" y="226.6" width="69.5" height="122.3"/>
      <rect class="st3" x="54.3" y="226.6" width="68.9" height="122.3"/>
      <rect class="st3" x="128.2" y="480.1" width="69.5" height="122.3"/>
      <rect class="st3" x="54.3" y="480.1" width="68.9" height="122.3"/>
      <rect class="st3" x="426.8" y="480.1" width="64.1" height="122.3"/>
      <rect class="st3" x="352.3" y="480.1" width="68.9" height="122.3"/>
      <rect class="st3" x="426.8" y="101.6" width="68.9" height="171.6"/>
      <rect class="st3" x="501.3" y="100.4" width="68.9" height="172.8"/>
      <rect class="st3" x="426.8" y="278.9" width="143.4" height="68.9"/>
      <rect class="st3" x="202.8" y="480" width="143.9" height="122.3"/>
    </g>
  </g>
  <rect id="pic1-holder" class="st0" x="621.9" y="85" width="155.2" height="155.2"/>
  <rect id="pic2-holder" class="st0" x="621.9" y="275.2" width="155.2" height="155.2"/>
  <rect id="pic3-holder" class="st0" x="621.9" y="462.5" width="155.2" height="155.2"/>
  <rect id="pic1-answer-letter-1" class="st0" x="790" y="108.4" width="85.8" height="128.4"/>
  <rect id="pic1-answer-letter-2" class="st0" x="899.3" y="108.4" width="85.8" height="128.4"/>
  <rect id="pic1-answer-letter-3" class="st0" x="1008.7" y="108.4" width="85.8" height="128.4"/>
  <rect id="pic1-answer-letter-4" class="st0" x="1118.1" y="108.4" width="85.8" height="128.4"/>
  <rect id="pic1-answer-letter-5" class="st0" x="1227.4" y="108.4" width="86" height="128"/>
  <rect id="pic2-answer-letter-1" class="st0" x="790" y="300.7" width="85.8" height="128.4"/>
  <rect id="pic2-answer-letter-2" class="st0" x="899.3" y="300.7" width="85.8" height="128.4"/>
  <rect id="pic2-answer-letter-3" class="st0" x="1008.7" y="300.7" width="85.8" height="128.4"/>
  <rect id="pic2-answer-letter-4" class="st0" x="1118.1" y="300.7" width="85.8" height="128.4"/>
  <rect id="pic2-answer-letter-5" class="st0" x="1227.4" y="300.7" width="86" height="128"/>
  <rect id="pic3-answer-letter-1" class="st0" x="789.9" y="489.3" width="85.8" height="128.4"/>
  <rect id="pic3-answer-letter-2" class="st0" x="899.3" y="489.3" width="85.8" height="128.4"/>
  <rect id="pic3-answer-letter-3" class="st0" x="1008.7" y="489.3" width="85.8" height="128.4"/>
  <rect id="pic3-answer-letter-4" class="st0" x="1118" y="489.3" width="85.8" height="128.4"/>
  <rect id="pic3-answer-letter-5" class="st0" x="1227.3" y="489.4" width="86" height="128"/>
</svg>