<?xml version="1.0" encoding="UTF-8"?>
<svg id="Layer_1" data-name="Layer 1" xmlns="http://www.w3.org/2000/svg" viewBox="0 0 1366 768">
  <defs>
    <style>
      .cls-1 {
        fill: none;
      }

      .cls-2 {
        fill: #b8e0f4;
      }

      .cls-3 {
        fill: #fff;
        opacity: .2;
      }

      .cls-4 {
        fill: #0972b2;
      }
    </style>
  </defs>
  <rect class="cls-2" width="1366" height="768"/>
  <rect id="op-1-1" class="cls-4" x="470.41" y="100.04" width="169.3" height="169.3"/>
  <rect id="op-1-2" class="cls-3" x="657.47" y="100.04" width="169.3" height="169.3"/>
  <rect id="op-2-2" class="cls-3" x="657.47" y="291.49" width="169.3" height="169.3"/>
  <rect id="stack-6" class="cls-1" x="58.27" y="59.35" width="169.3" height="169.3"/>
  <rect id="stack-5" class="cls-1" x="81.65" y="82.73" width="169.3" height="169.3"/>
  <rect id="stack-4" class="cls-1" x="110.15" y="111.23" width="169.3" height="169.3"/>
  <rect id="stack-3" class="cls-1" x="142.92" y="144" width="169.3" height="169.3"/>
  <rect id="stack-2" class="cls-1" x="174.34" y="175.42" width="169.3" height="169.3"/>
  <rect id="stack-1" class="cls-1" x="205.76" y="206.84" width="169.3" height="169.3"/>
  <rect id="op-1-1-2" data-name="op-1-1" class="cls-4" x="470.41" y="291.49" width="169.3" height="169.3"/>
  <rect id="op-3-2" class="cls-3" x="657.47" y="482.94" width="169.3" height="169.3"/>
  <rect id="op-3-1" class="cls-4" x="470.41" y="482.94" width="169.3" height="169.3"/>
  <rect id="op-4-1" class="cls-1" x="911.77" y="100.04" width="169.3" height="169.3"/>
  <rect id="op-4-2" class="cls-3" x="1098.84" y="100.04" width="169.3" height="169.3"/>
  <rect id="op-5-2" class="cls-3" x="1098.84" y="291.49" width="169.3" height="169.3"/>
  <rect id="op-5-1" class="cls-1" x="911.77" y="291.49" width="169.3" height="169.3"/>
  <rect id="op-6-2" class="cls-3" x="1098.84" y="482.94" width="169.3" height="169.3"/>
  <rect id="op-6-1" class="cls-1" x="911.77" y="482.94" width="169.3" height="169.3"/>
</svg>